# File created by Blade
# Date/Time:  Wed Jan 21 15:15:22 2015
# Frame Rate: 120.000 fps
#------------------------------------------------------
:FULLY-SPECIFIED
:DEGREES
446
root 17.578835 36.260381 -18.043766 104.680168 -76.242527 -91.269603
Spine -19.128903 -5.101711 22.467315
Head 11.682078 7.542157 -1.572130
LeftShoulder -11.698134 -21.014535 -1.867002
LeftArm -21.243353 6.453043 -70.499504
LeftForeArm 2.103416 -0.000000 8.443105
LeftHand -1.902078 -0.000000 -2.579969
LeftHandThumb1 -26.253704 0.000000 33.147579
RightShoulder -14.291587 -17.343588 6.607847
RightArm -3.031726 9.871792 56.238402
RightForeArm -18.948167 -0.000000 14.699888
RightHand -3.548843 -0.000000 11.047234
RightHandThumb1 -24.326973 -0.000000 -32.862282
LeftUpLeg -8.482627 3.956165 2.313721
LeftLeg -4.188367 -0.000000 0.000000
LeftFoot -18.899839 27.059524 -7.166759
LeftToeBase 21.880668 -0.000000 -0.000000
RightUpLeg -15.199997 -4.343528 -20.404002
RightLeg 140.710397 -0.000000 -0.000000
RightFoot 18.241557 -28.258236 -12.101817
RightToeBase 27.866515 -0.000000 -0.000000
447
root 17.584663 36.273968 -18.033100 104.180070 -76.090326 -90.663664
Spine -19.173905 -5.267667 22.718051
Head 11.510692 7.660026 -1.594531
LeftShoulder -11.690925 -21.042444 -1.868012
LeftArm -21.334928 6.444288 -70.507270
LeftForeArm 1.957473 -0.000000 8.446546
LeftHand -1.833424 -0.000000 -2.184905
LeftHandThumb1 -26.253704 0.000000 33.147579
RightShoulder -14.373144 -17.358350 6.563893
RightArm -3.265736 10.352055 56.066254
RightForeArm -18.179741 -0.000000 14.638615
RightHand -3.308877 -0.000000 11.415102
RightHandThumb1 -24.326973 -0.000000 -32.862282
LeftUpLeg -8.575746 3.943749 2.461271
LeftLeg -4.247969 -0.000000 0.000000
LeftFoot -18.851856 26.987321 -7.241757
LeftToeBase 21.898944 -0.000000 -0.000000
RightUpLeg -15.164311 -4.715331 -20.678179
RightLeg 141.182161 -0.000000 -0.000000
RightFoot 18.762186 -27.916594 -12.616277
RightToeBase 28.336138 -0.000000 -0.000000
448
root 17.595614 36.294641 -18.032259 103.123180 -75.900817 -89.315505
Spine -19.494397 -5.539458 23.075085
Head 11.411558 7.793839 -1.629057
LeftShoulder -11.700984 -21.017957 -1.874363
LeftArm -21.451651 6.389123 -70.481032
LeftForeArm 1.993529 -0.000000 8.495689
LeftHand -2.027817 -0.000000 -2.382406
LeftHandThumb1 -26.253704 0.000000 33.147579
RightShoulder -14.373771 -17.319194 6.468522
RightArm -3.651124 10.672763 55.875825
RightForeArm -17.316673 0.000000 14.568678
RightHand -3.026045 0.000000 12.471570
RightHandThumb1 -24.326973 -0.000000 -32.862282
LeftUpLeg -8.906121 3.770389 2.696428
LeftLeg -4.233535 -0.000000 0.000000
LeftFoot -18.800089 26.891802 -7.352255
LeftToeBase 21.882784 -0.000000 -0.000000
RightUpLeg -15.235342 -5.409113 -20.774884
RightLeg 141.543325 -0.000000 -0.000000
RightFoot 19.319284 -27.767507 -13.085969
RightToeBase 28.526715 -0.000000 -0.000000
449
root 17.605861 36.309529 -18.027711 102.506111 -75.762513 -88.497835
Spine -19.659432 -5.736018 23.287515
Head 11.267579 7.881509 -1.583293
LeftShoulder -11.733153 -21.046044 -1.814431
LeftArm -21.503649 6.365104 -70.477949
LeftForeArm 2.029495 -0.000000 8.426700
LeftHand -1.869376 0.000000 -2.412421
LeftHandThumb1 -26.253704 0.000000 33.147579
RightShoulder -14.466137 -17.240964 6.439711
RightArm -3.913470 10.744640 55.699026
RightForeArm -16.670216 -0.000000 14.478344
RightHand -2.680677 -0.000000 13.275539
RightHandThumb1 -24.326973 -0.000000 -32.862282
LeftUpLeg -9.115820 3.733656 2.842067
LeftLeg -4.270068 -0.000000 0.000000
LeftFoot -18.732531 26.762359 -7.446253
LeftToeBase 21.897018 -0.000000 -0.000000
RightUpLeg -15.316998 -5.961637 -20.967347
RightLeg 141.891020 -0.000000 -0.000000
RightFoot 19.651569 -27.610760 -13.097708
RightToeBase 28.707713 -0.000000 -0.000000
450
root 17.617257 36.324765 -18.025854 102.000571 -75.610639 -87.771494
Spine -19.844859 -5.924371 23.521772
Head 11.108103 7.993016 -1.572915
LeftShoulder -11.764963 -21.036917 -1.769555
LeftArm -21.533049 6.253318 -70.434484
LeftForeArm 1.943850 -0.000000 8.357327
LeftHand -1.758244 -0.000000 -2.338594
LeftHandThumb1 -26.253704 0.000000 33.147579
RightShoulder -14.429945 -17.136340 6.362970
RightArm -4.322738 10.835196 55.557165
RightForeArm -16.300939 -0.000000 14.497309
RightHand -2.417220 -0.000000 13.851733
RightHandThumb1 -24.326973 -0.000000 -32.862282
LeftUpLeg -9.353065 3.725395 2.997202
LeftLeg -4.295731 -0.000000 0.000000
LeftFoot -18.677557 26.652989 -7.526855
LeftToeBase 21.935963 -0.000000 -0.000000
RightUpLeg -15.464702 -6.541418 -21.131707
RightLeg 142.177650 -0.000000 -0.000000
RightFoot 20.015636 -27.362099 -13.308207
RightToeBase 29.156929 -0.000000 -0.000000
451
root 17.627468 36.338159 -18.020620 101.549456 -75.503087 -87.129162
Spine -19.997656 -6.089838 23.674443
Head 10.965271 8.054354 -1.548635
LeftShoulder -11.746837 -21.030818 -1.737974
LeftArm -21.580031 6.207238 -70.381566
LeftForeArm 1.902771 0.000000 8.364365
LeftHand -1.920089 -0.000000 -2.439414
LeftHandThumb1 -26.253704 0.000000 33.147579
RightShoulder -14.477989 -17.232406 6.362458
RightArm -4.444546 10.943329 55.499829
RightForeArm -16.046865 -0.000000 14.443467
RightHand -2.197078 -0.000000 14.463462
RightHandThumb1 -24.326973 -0.000000 -32.862282
LeftUpLeg -9.556787 3.733633 3.094721
LeftLeg -4.324935 -0.000000 0.000000
LeftFoot -18.603122 26.508152 -7.615980
LeftToeBase 21.914532 -0.000000 -0.000000
RightUpLeg -15.589586 -7.164847 -21.321712
RightLeg 142.434998 -0.000000 -0.000000
RightFoot 20.251990 -27.125477 -13.573468
RightToeBase 29.221285 -0.000000 -0.000000
452
root 17.637650 36.351431 -18.015537 101.203296 -75.374335 -86.621370
Spine -20.092856 -6.211506 23.829904
Head 10.813764 8.121100 -1.505035
LeftShoulder -11.727508 -21.109641 -1.693775
LeftArm -21.644325 6.310028 -70.396950
LeftForeArm 1.629619 0.000000 8.277449
LeftHand -1.721819 -0.000000 -2.269238
LeftHandThumb1 -26.253704 0.000000 33.147579
RightShoulder -14.471381 -17.065370 6.286449
RightArm -4.791212 10.809930 55.429271
RightForeArm -15.946871 -0.000000 14.362187
RightHand -1.921518 -0.000000 15.366864
RightHandThumb1 -24.326973 -0.000000 -32.862282
LeftUpLeg -9.720788 3.798986 3.200379
LeftLeg -4.376534 -0.000000 0.000000
LeftFoot -18.520437 26.364895 -7.659652
LeftToeBase 21.930008 -0.000000 -0.000000
RightUpLeg -15.705222 -7.827879 -21.465396
RightLeg 142.609319 -0.000000 -0.000000
RightFoot 20.417802 -27.073315 -13.601478
RightToeBase 29.144405 -0.000000 -0.000000
453
root 17.646041 36.364790 -18.011939 100.711206 -75.240941 -85.968585
Spine -20.202707 -6.369850 23.996671
Head 10.649811 8.166396 -1.469748
LeftShoulder -11.690275 -21.228723 -1.635669
LeftArm -21.770823 6.235433 -70.339038
LeftForeArm 1.686929 -0.000000 8.205748
LeftHand -1.674075 -0.000000 -2.454553
LeftHandThumb1 -26.253704 0.000000 33.147579
RightShoulder -14.443848 -17.002590 6.203723
RightArm -5.039759 10.614911 55.444045
RightForeArm -15.869180 -0.000000 14.271888
RightHand -1.806875 0.000000 15.929080
RightHandThumb1 -24.326973 -0.000000 -32.862282
LeftUpLeg -9.885443 3.811162 3.318917
LeftLeg -4.421460 -0.000000 0.000000
LeftFoot -18.437325 26.235964 -7.701359
LeftToeBase 21.936579 -0.000000 -0.000000
RightUpLeg -15.810207 -8.580178 -21.552873
RightLeg 142.718248 -0.000000 -0.000000
RightFoot 20.542483 -27.079104 -13.597603
RightToeBase 28.809001 -0.000000 -0.000000
